<?xml version="1.0" standalone="no"?>
<!DOCTYPE svg PUBLIC "-//W3C//DTD SVG 20010904//EN" "http://www.w3.org/TR/2001/REC-SVG-20010904/DTD/svg10.dtd">
<svg version="1.0" xmlns="http://www.w3.org/2000/svg"
    width="647.000000pt" height="623.000000pt" viewBox="0 0 647.000000 623.000000"
    preserveAspectRatio="xMidYMid meet">

    <g transform="translate(0.000000,623.000000) scale(0.100000,-0.100000)"
        fill="#eee" stroke="none">
        <path
            d="M900 4786 c-67 -19 -100 -39 -151 -93 -71 -73 -79 -96 -79 -216 0
-99 1 -106 39 -183 33 -68 52 -92 133 -167 52 -48 100 -87 106 -87 6 0 15 -6
19 -13 14 -21 177 -154 231 -187 29 -17 52 -36 52 -42 0 -6 -11 -23 -25 -40
-21 -25 -25 -39 -25 -99 0 -79 12 -104 73 -159 37 -33 39 -38 27 -59 -7 -15
-10 -45 -8 -78 4 -47 10 -59 42 -89 l38 -36 -17 -81 c-25 -124 -13 -312 26
-389 17 -33 9 -46 -73 -133 -45 -47 -91 -101 -103 -118 -11 -18 -26 -41 -32
-52 -39 -61 -84 -162 -111 -247 -17 -53 -45 -127 -62 -165 -17 -37 -35 -84
-40 -103 -5 -19 -23 -84 -40 -145 -43 -153 -51 -193 -50 -245 3 -134 53 -209
140 -210 30 0 44 8 85 50 27 28 53 50 58 50 5 0 22 -11 39 -25 56 -47 135 -26
218 59 46 48 64 56 74 31 4 -12 24 -15 86 -15 44 0 80 3 80 8 0 4 20 29 44 56
l43 50 28 -22 c38 -30 92 -29 139 3 20 14 41 25 45 25 5 0 21 16 35 35 15 19
32 35 38 35 19 0 77 -50 93 -80 11 -22 147 -210 192 -265 5 -5 16 -22 25 -36
9 -15 33 -37 52 -49 34 -20 39 -21 111 -9 62 11 94 10 178 -1 138 -18 144 -17
185 23 28 29 35 44 37 81 1 25 10 57 19 71 9 13 16 38 16 55 0 24 8 35 38 54
20 13 46 33 56 45 24 27 39 27 77 -1 26 -19 40 -22 102 -20 66 3 75 6 107 38
42 39 50 41 75 14 10 -11 46 -36 80 -55 l63 -35 7 -87 c8 -103 27 -149 74
-180 39 -27 70 -28 196 -9 53 8 127 12 180 9 l90 -5 38 38 c20 20 37 43 37 51
0 7 4 13 9 13 4 0 27 28 50 63 74 112 115 167 126 167 5 0 24 -9 40 -20 43
-28 67 -25 117 17 67 56 134 83 219 87 66 3 81 0 131 -25 32 -16 64 -29 73
-29 8 0 15 -5 15 -12 0 -20 52 -68 73 -68 19 0 96 39 127 65 19 16 74 26 184
32 116 6 151 -8 276 -108 54 -44 104 -79 112 -79 54 0 39 105 -54 365 -22 61
-47 130 -55 155 -9 25 -28 73 -44 107 -16 34 -35 77 -42 95 -8 18 -35 62 -61
98 -26 36 -65 92 -87 125 -22 32 -43 62 -48 65 -4 3 -22 25 -40 49 -17 25 -55
70 -84 100 -28 31 -62 69 -74 84 l-21 28 20 62 c11 34 23 71 28 82 19 45 23
76 29 220 l6 150 64 11 c91 16 110 42 154 194 5 19 23 70 39 113 16 43 47 131
70 195 22 64 67 172 99 240 56 118 59 122 89 122 70 0 99 34 100 114 0 52 -4
64 -27 88 -23 24 -34 28 -84 28 -50 0 -60 -3 -78 -26 -12 -15 -21 -34 -21 -43
0 -23 -20 -41 -43 -41 -10 0 -33 -6 -50 -14 -37 -17 -219 -60 -362 -85 -131
-23 -362 -98 -394 -127 -20 -18 -26 -35 -29 -83 -4 -51 -8 -61 -23 -61 -10 0
-64 24 -121 53 -154 79 -164 81 -413 87 l-220 5 -5 47 c-4 39 -11 52 -36 70
-17 13 -93 70 -169 128 -76 58 -179 132 -229 165 -50 33 -107 72 -126 86 -19
14 -64 43 -99 64 -36 21 -60 40 -53 43 6 2 14 19 18 37 5 28 0 42 -27 81 -37
50 -61 64 -116 64 -51 0 -90 -32 -106 -88 -20 -67 -1 -122 50 -146 l36 -17 -7
-122 c-4 -67 -7 -218 -6 -334 1 -143 -2 -213 -9 -213 -6 0 -34 11 -63 24 -29
14 -61 27 -70 30 -9 3 -35 43 -57 90 -114 239 -289 459 -416 522 -45 22 -76
29 -141 32 -72 4 -95 0 -183 -27 -55 -17 -112 -38 -127 -46 -53 -27 -133 -100
-150 -137 -9 -21 -25 -45 -35 -54 -18 -16 -21 -16 -46 7 -14 13 -42 41 -62 63
-137 147 -226 230 -302 279 -47 31 -91 63 -98 70 -19 24 -123 65 -191 76 -82
14 -143 13 -200 -3z m206 -122 c105 -34 134 -48 231 -111 146 -95 413 -352
413 -397 0 -12 -7 -53 -15 -91 -8 -39 -15 -89 -15 -113 0 -34 -8 -52 -38 -91
-24 -29 -45 -73 -56 -110 -9 -33 -23 -61 -30 -61 -6 0 -28 16 -47 36 -40 42
-108 79 -161 87 -38 6 -88 42 -346 248 -210 168 -262 242 -270 385 -4 67 -1
87 16 120 23 44 66 94 82 94 5 0 10 4 10 9 0 29 131 26 226 -5z m1213 -214
c84 -16 151 -54 226 -129 97 -96 180 -243 215 -381 16 -60 23 -68 86 -86 172
-50 375 -236 447 -409 81 -196 85 -401 10 -550 -51 -102 -87 -138 -74 -72 18
83 -37 214 -124 296 -64 61 -184 122 -290 147 -108 25 -393 26 -505 0 -129
-29 -302 -87 -385 -128 -163 -82 -225 -141 -293 -275 -29 -55 -42 -169 -26
-222 6 -23 10 -41 8 -41 -3 0 5 -18 16 -41 32 -61 20 -66 -30 -13 -71 76 -120
172 -146 286 -18 79 -15 264 6 349 9 39 16 48 51 63 61 27 114 83 135 145 26
73 50 83 101 43 21 -17 62 -38 92 -48 46 -15 61 -16 100 -5 52 14 94 49 122
103 15 29 34 44 93 72 168 81 249 247 232 475 -3 47 -10 102 -16 123 -10 36
-36 56 -52 40 -10 -10 -10 -6 -2 -155 7 -118 -6 -188 -52 -278 -91 -182 -315
-221 -415 -74 -38 55 -51 113 -50 226 2 194 52 349 143 435 98 94 233 132 377
104z m-589 -660 c0 -12 9 -40 20 -62 36 -76 23 -102 -34 -66 -40 26 -46 56
-22 113 16 39 36 46 36 15z m-280 -56 c14 -7 38 -24 54 -37 29 -24 29 -24 15
-71 -12 -41 -20 -50 -51 -63 -49 -19 -54 -56 -8 -55 3 0 14 2 25 6 15 4 33 -6
69 -39 46 -42 48 -45 38 -75 -25 -70 -73 -109 -136 -110 -78 0 -110 74 -71
167 18 43 11 55 -45 72 -31 9 -44 21 -60 51 -23 44 -26 117 -7 143 26 37 119
42 177 11z m228 -110 c16 -11 22 -25 22 -52 0 -49 -10 -62 -51 -68 -50 -8 -74
14 -74 66 0 64 51 91 103 54z m198 -49 c29 -20 59 -34 107 -49 27 -8 20 -41
-14 -70 -48 -41 -134 -33 -187 17 -19 18 -22 27 -16 67 10 72 41 82 110 35z
m2119 -296 c22 -12 59 -32 83 -45 23 -13 85 -47 138 -75 l96 -51 136 41 c76
23 151 41 168 41 37 0 105 -43 162 -103 l44 -45 -34 -17 c-18 -10 -75 -32
-127 -50 -51 -18 -97 -39 -102 -46 -14 -22 -10 -118 6 -149 30 -59 94 -77 156
-44 38 19 68 83 69 142 0 23 7 54 16 67 16 24 15 25 -5 25 -25 0 -26 4 -4 30
23 27 30 25 53 -12 80 -132 53 -350 -59 -467 -110 -116 -380 -152 -686 -91
-260 51 -324 77 -416 171 -168 171 -187 401 -46 555 67 73 196 136 297 143 8
1 33 -9 55 -20z m-1325 -60 c186 -17 303 -58 386 -136 64 -59 87 -112 92 -217
l5 -89 -39 9 c-194 42 -332 -56 -346 -246 l-3 -35 -124 -37 c-68 -21 -143 -40
-165 -43 l-41 -6 -2 53 c-2 53 -1 53 39 73 43 20 68 49 68 76 0 31 -34 27 -66
-8 -37 -38 -78 -44 -115 -14 -83 65 -189 65 -264 0 -43 -38 -70 -114 -61 -171
l7 -41 -68 5 c-130 9 -251 97 -289 210 -25 77 -16 180 25 262 93 190 418 340
776 359 33 2 62 4 65 5 3 1 57 -3 120 -9z m419 -479 c19 -5 52 -23 72 -40 36
-28 79 -40 79 -21 0 4 19 21 43 37 37 26 51 29 117 29 86 -1 125 -18 172 -76
31 -38 39 -64 39 -122 0 -85 -20 -142 -78 -218 -58 -76 -65 -82 -97 -69 -56
21 -110 12 -166 -26 l-51 -35 -33 24 c-43 34 -110 50 -167 43 -46 -6 -48 -6
-93 41 -69 73 -100 142 -99 225 1 81 15 127 49 159 56 53 136 71 213 49z
m-1635 -119 c40 -84 139 -182 238 -235 73 -40 141 -58 261 -70 38 -4 42 -11
27 -47 -22 -52 -15 -126 15 -169 35 -51 85 -75 159 -75 l58 0 25 -98 c27 -106
23 -127 -22 -127 -13 0 -44 -16 -70 -36 -37 -28 -49 -33 -61 -23 -19 16 -18
39 6 100 21 56 19 69 -9 69 -12 0 -32 -29 -65 -95 -57 -115 -123 -185 -172
-185 -50 0 -58 48 -23 140 28 73 29 94 4 98 -16 2 -32 -19 -83 -117 -71 -135
-130 -201 -182 -201 l-30 0 0 63 c0 47 7 76 28 122 31 64 31 85 3 85 -13 0
-35 -33 -75 -111 -54 -105 -81 -143 -150 -211 -33 -33 -99 -40 -110 -12 -12
30 -5 80 20 149 31 85 34 110 14 110 -8 0 -32 -33 -55 -76 -78 -146 -85 -158
-123 -199 -41 -42 -88 -54 -111 -27 -17 22 -16 203 3 282 57 242 231 670 321
790 39 52 125 145 135 145 3 0 13 -18 24 -39z m844 -50 c45 -23 72 -67 72
-116 0 -66 -37 -115 -106 -138 -45 -16 -59 -47 -21 -47 40 0 50 -21 36 -77
-14 -57 -32 -81 -76 -99 -42 -18 -87 -18 -122 1 -36 18 -41 32 -41 104 0 68
31 126 67 126 33 1 35 8 12 60 -36 82 -10 175 55 194 50 15 84 12 124 -8z
m2607 -111 c18 -80 -23 -156 -95 -180 -38 -12 -48 -12 -93 4 -51 18 -51 18
-65 -3 -8 -11 -20 -21 -27 -21 -13 0 -65 62 -65 78 0 5 27 17 61 26 67 19 162
62 224 100 22 14 43 26 47 26 3 0 9 -14 13 -30z m-2115 -76 c6 -14 10 -27 10
-29 0 -5 -87 -44 -125 -57 -48 -15 -140 -10 -181 9 -59 29 -49 37 60 57 16 3
49 12 74 20 52 16 83 23 125 25 21 1 30 -5 37 -25z m2274 -83 c88 -75 203
-192 251 -255 17 -22 46 -60 66 -86 20 -26 53 -74 74 -106 20 -33 51 -73 67
-90 37 -40 109 -155 102 -165 -3 -5 -28 7 -57 25 -142 91 -314 96 -465 15 -41
-21 -75 -39 -76 -39 -2 0 -18 14 -35 31 -18 17 -58 43 -89 57 -51 24 -69 27
-167 27 -100 0 -116 -3 -170 -28 -33 -15 -62 -31 -65 -35 -8 -13 -67 -52 -77
-52 -19 0 -73 60 -73 81 0 53 -79 119 -142 119 -27 0 -28 13 -9 76 18 57 20
59 58 64 52 8 91 38 99 78 6 31 4 36 -41 99 -16 22 7 29 107 37 114 8 151 -7
178 -70 10 -23 28 -47 39 -53 61 -33 151 11 151 74 0 43 -56 95 -101 95 -20 0
-29 4 -26 13 2 8 29 12 83 13 84 0 117 12 166 59 15 14 35 39 43 55 9 17 18
30 22 30 3 0 42 -31 87 -69z m-2641 -30 c28 -17 81 -35 117 -42 l65 -12 43
-88 c77 -157 198 -249 328 -249 88 0 97 -10 93 -102 -6 -109 -28 -134 -196
-218 -138 -69 -205 -112 -266 -169 -46 -44 -113 -81 -145 -81 -50 0 -62 11
-192 184 -84 112 -90 122 -90 167 0 90 63 113 136 49 38 -33 61 -31 66 8 2 22
11 29 47 39 89 26 76 57 -21 50 l-57 -5 -20 42 c-20 43 -45 126 -55 183 -4 24
0 39 18 60 38 46 46 69 46 130 0 49 11 83 27 83 2 0 27 -13 56 -29z m499 -79
c4 -56 20 -63 57 -23 35 37 76 47 125 31 56 -18 76 -52 76 -124 0 -56 -3 -65
-29 -90 -75 -72 -259 -63 -343 15 -34 33 -103 137 -117 178 -15 46 -14 58 7
64 9 3 49 16 87 30 l70 26 32 -31 c25 -24 33 -41 35 -76z m649 47 c-35 -57
-25 -105 31 -139 31 -19 73 -15 104 11 27 23 26 0 -2 -38 -80 -107 -143 -142
-252 -143 -129 0 -198 57 -188 153 10 95 55 135 139 121 26 -4 45 -15 59 -35
23 -30 53 -38 61 -16 2 6 2 26 0 43 -4 23 2 38 22 63 36 42 54 27 26 -20z
m445 1 c22 -16 56 -42 77 -57 63 -46 88 -74 82 -94 -4 -10 -8 -40 -9 -66 -5
-67 -14 -107 -42 -170 l-24 -54 -45 7 c-90 13 -134 -25 -52 -46 66 -17 67 -18
67 -45 0 -39 27 -42 64 -6 60 58 146 32 146 -46 0 -34 -42 -117 -94 -185 -12
-15 -41 -55 -66 -88 -79 -108 -120 -111 -240 -21 -118 88 -191 135 -250 161
-68 31 -158 82 -186 107 -44 39 -67 111 -58 184 l6 47 77 4 c156 9 279 115
357 307 20 48 28 57 66 72 60 25 80 23 124 -11z m-332 -22 c21 -30 20 -51 -3
-79 -16 -20 -23 -22 -47 -14 -39 14 -53 55 -30 89 21 33 59 34 80 4z m717 12
c31 -17 22 -30 -21 -30 -27 0 -40 4 -40 13 0 28 26 35 61 17z m-641 -30 c0 -5
-5 -10 -11 -10 -5 0 -7 5 -4 10 3 6 8 10 11 10 2 0 4 -4 4 -10z m970 -50 c39
-39 16 -100 -37 -100 -31 0 -52 25 -53 62 0 53 52 76 90 38z m-428 -67 c36
-33 17 -113 -28 -113 -40 0 -63 18 -70 56 -11 61 52 99 98 57z m-1035 -153
c18 -16 38 -30 43 -30 5 0 9 -31 8 -68 0 -38 3 -86 6 -108 6 -35 4 -42 -20
-63 -47 -41 -141 -55 -179 -27 -19 14 -19 15 -1 66 15 41 17 67 13 125 l-7 74
43 30 c23 16 46 30 51 30 4 1 24 -12 43 -29z m-419 -530 c-16 -95 -30 -105
-133 -95 -41 4 -77 11 -80 15 -12 20 201 178 217 162 5 -5 3 -41 -4 -82z m924
-25 c83 -58 78 -66 -42 -80 -77 -9 -97 8 -115 100 -7 39 -11 73 -9 77 5 8 78
-35 166 -97z" />
        <path
            d="M3733 3194 c-3 -8 -1 -20 6 -27 17 -17 13 -24 -11 -23 -16 1 -22 -4
-18 -14 2 -8 3 -35 2 -60 -8 -159 -10 -149 30 -186 42 -38 72 -43 119 -19 37
19 77 82 84 132 6 38 6 38 -80 102 -48 34 -90 74 -95 87 -11 27 -28 31 -37 8z" />
        <path
            d="M4178 2806 c-11 -8 -18 -26 -18 -46 0 -40 23 -59 70 -60 78 0 108 63
48 100 -38 23 -75 25 -100 6z m77 -30 c37 -27 -2 -58 -49 -40 -16 6 -22 35 -9
47 11 11 38 8 58 -7z" />
        <path
            d="M4045 2660 c-17 -103 106 -168 199 -105 65 44 107 90 94 103 -9 9
-20 6 -45 -9 -52 -32 -132 -23 -176 19 -45 44 -64 42 -72 -8z m98 -65 c1 -5
-6 -11 -15 -13 -11 -2 -18 3 -18 13 0 17 30 18 33 0z m47 -15 c0 -5 -4 -10 -9
-10 -6 0 -13 5 -16 10 -3 6 1 10 9 10 9 0 16 -4 16 -10z" />
        <path
            d="M2748 3081 c-27 -32 -32 -84 -13 -143 38 -116 135 -158 205 -88 43
43 16 168 -49 223 -41 34 -117 38 -143 8z" />
        <path
            d="M1840 2893 c-33 -12 -59 -47 -70 -94 -22 -92 32 -179 112 -179 59 0
98 42 98 106 0 61 -33 130 -74 155 -32 20 -41 21 -66 12z" />
        <path
            d="M2343 2799 c-21 -7 -73 -64 -73 -79 0 -32 23 -60 58 -71 34 -10 44
-8 80 10 50 25 76 62 67 91 -13 41 -83 67 -132 49z m80 -59 c8 -30 -19 -50
-64 -50 -47 0 -60 21 -34 50 25 28 91 28 98 0z" />
        <path
            d="M1819 2218 c-58 -59 -119 -98 -151 -98 -47 0 -58 9 -58 50 0 41 -8
70 -19 70 -4 0 -34 -27 -68 -59 -74 -72 -131 -103 -181 -99 -29 2 -40 9 -50
31 -8 16 -21 27 -33 27 -29 0 -24 -41 9 -73 56 -54 131 -45 227 27 l59 44 18
-24 c11 -13 38 -29 61 -35 38 -10 47 -9 92 15 55 29 140 98 155 126 7 13 6 21
-5 30 -11 9 -22 3 -56 -32z" />
    </g>
</svg>