<?xml version="1.0" standalone="no"?>
<!DOCTYPE svg PUBLIC "-//W3C//DTD SVG 20010904//EN"
 "http://www.w3.org/TR/2001/REC-SVG-20010904/DTD/svg10.dtd">
<svg version="1.0" xmlns="http://www.w3.org/2000/svg"
 width="480.000000pt" height="339.000000pt" viewBox="0 0 480.000000 339.000000"
 preserveAspectRatio="xMidYMid meet">

<g transform="translate(0.000000,339.000000) scale(0.100000,-0.100000)"
fill="white" stroke="none">
<path d="M2643 3329 c-53 -26 -188 -166 -236 -246 l-38 -61 -67 -6 c-223 -20
-302 -29 -430 -52 l-143 -26 -77 51 c-104 68 -238 133 -347 170 -184 62 -394
77 -466 35 -78 -46 -130 -158 -150 -322 -12 -97 -3 -206 36 -417 15 -77 24
-156 22 -175 -2 -19 -23 -83 -46 -143 -74 -190 -100 -320 -129 -622 l-7 -80
-100 -12 c-154 -19 -259 -42 -273 -60 -15 -21 -15 -25 2 -48 13 -18 20 -18
157 -6 79 7 162 15 184 18 l40 5 29 -147 c16 -81 31 -156 33 -166 4 -14 -2
-22 -23 -29 -49 -19 -193 -104 -199 -118 -8 -20 13 -52 34 -52 10 0 63 20 116
45 54 25 102 42 106 38 9 -10 129 -271 129 -281 0 -4 -50 -38 -110 -75 -144
-90 -170 -112 -170 -147 0 -29 15 -40 54 -40 13 0 82 38 155 85 72 47 134 85
138 85 3 0 34 -26 68 -59 235 -219 615 -366 1095 -422 153 -18 535 -15 705 6
347 41 628 120 876 246 175 89 308 200 372 311 12 21 29 38 38 38 8 0 91 -34
183 -76 92 -41 175 -74 183 -72 22 4 38 32 30 52 -9 23 -142 106 -253 158 -51
23 -94 47 -94 52 0 12 110 299 119 308 3 4 77 -2 164 -14 87 -11 165 -17 173
-14 7 3 14 17 14 30 0 29 3 28 -200 72 -69 14 -126 27 -127 28 -1 1 8 69 20
151 l22 150 125 -2 c69 -1 148 -7 175 -12 75 -14 116 17 82 63 -16 22 -165 46
-284 46 -45 0 -85 5 -88 10 -4 6 -9 43 -11 83 -6 93 -31 258 -48 324 -13 50
-13 55 21 154 56 162 57 358 4 482 -21 48 -81 113 -115 123 -11 4 -24 12 -28
18 -4 6 -8 61 -8 121 0 223 -67 366 -188 401 -47 14 -68 15 -134 5 -114 -16
-284 -75 -438 -153 l-135 -68 -30 37 c-80 103 -180 172 -316 218 -88 30 -141
32 -196 4z m244 -119 c141 -70 225 -167 267 -309 21 -71 20 -76 -9 -89 -34
-16 -61 -15 -110 3 -63 22 -146 19 -185 -8 -110 -74 -95 -231 31 -325 40 -29
49 -42 47 -62 -8 -64 -267 -101 -398 -56 -124 42 -152 93 -152 279 0 134 18
219 72 332 45 94 113 181 189 243 53 43 56 44 110 39 36 -4 85 -20 138 -47z
m1003 -15 c62 -32 115 -201 108 -346 l-3 -64 -65 3 c-80 4 -197 -19 -266 -53
-28 -14 -55 -25 -61 -25 -5 0 -25 16 -44 36 -50 53 -118 83 -217 97 l-86 13
-18 59 c-10 33 -18 63 -18 67 0 9 235 128 313 159 80 32 227 68 280 69 26 0
61 -7 77 -15z m-2762 -80 c164 -31 338 -106 498 -214 l89 -60 60 15 c156 37
530 83 546 67 4 -4 -1 -46 -12 -93 -37 -167 -20 -368 37 -451 71 -103 316
-155 494 -105 112 31 104 32 133 -16 29 -50 109 -128 156 -153 48 -24 159 -45
208 -38 l43 6 85 -86 c55 -57 105 -97 147 -119 62 -32 66 -33 188 -33 111 0
131 3 179 25 30 13 74 39 98 57 23 18 44 29 47 25 22 -37 55 -355 38 -366 -6
-3 -59 -13 -119 -21 -59 -9 -115 -18 -124 -21 -24 -7 -30 -41 -11 -64 17 -20
19 -20 131 -5 63 8 117 13 120 10 5 -5 -27 -258 -36 -281 -2 -6 -34 -15 -71
-19 -92 -9 -102 -13 -102 -40 0 -26 9 -30 88 -40 28 -4 52 -12 52 -18 0 -16
-100 -270 -110 -281 -6 -5 -38 0 -80 13 -78 25 -120 22 -120 -8 0 -25 26 -46
93 -75 31 -14 57 -30 57 -35 0 -15 -80 -112 -137 -167 -177 -168 -575 -316
-1018 -376 -182 -25 -585 -31 -760 -10 -345 41 -670 147 -885 291 -91 61 -182
139 -175 151 3 5 51 34 105 65 112 63 130 83 105 121 -8 13 -23 24 -32 24 -10
0 -66 -27 -125 -60 -59 -33 -112 -60 -118 -60 -14 0 -133 249 -127 265 3 6 40
20 83 31 92 23 124 44 108 71 -15 25 -51 27 -141 9 -45 -10 -80 -13 -86 -7
-10 10 -62 289 -56 296 3 2 56 9 119 15 63 6 125 13 136 15 27 6 37 30 24 55
-9 17 -25 20 -148 22 l-137 3 -3 40 c-5 58 16 245 40 355 23 111 74 267 118
364 l30 69 -24 111 c-38 169 -59 348 -52 446 9 138 52 257 104 284 36 20 148
20 250 1z m2277 -372 c75 -27 149 -104 171 -178 34 -118 4 -234 -84 -322 -66
-65 -139 -97 -207 -90 -108 11 -206 78 -244 167 -27 63 -30 164 -7 244 43 147
219 232 371 179z m-406 -12 c11 -7 9 -17 -12 -52 -14 -24 -30 -61 -37 -81 -6
-21 -16 -38 -21 -38 -31 0 -75 91 -62 128 13 37 36 52 77 52 23 0 47 -4 55 -9z
m1054 -56 c87 -31 127 -119 127 -280 0 -174 -62 -336 -156 -407 -69 -53 -133
-73 -229 -72 -109 2 -169 29 -257 119 -52 53 -65 72 -57 82 15 18 35 16 97 -7
67 -26 115 -25 169 1 61 30 87 82 80 162 -6 71 -38 123 -101 166 -41 28 -45
35 -55 94 -17 99 -17 101 37 125 26 12 65 26 87 32 55 13 200 4 258 -15z
m-357 -323 c46 -32 59 -117 23 -153 -18 -18 -29 -20 -67 -15 -26 3 -50 10 -54
14 -10 10 63 160 77 161 6 0 15 -3 21 -7z"/>
<path d="M1405 1367 c-97 -97 -47 -317 73 -317 33 0 45 6 70 35 68 77 68 203
0 280 -25 29 -37 35 -70 35 -32 0 -47 -7 -73 -33z"/>
<path d="M3216 1368 c-96 -97 -48 -318 69 -318 75 0 134 98 122 202 -16 133
-115 193 -191 116z"/>
<path d="M2333 1056 c-157 -51 -179 -190 -41 -263 47 -24 64 -28 143 -28 78 0
98 4 140 26 174 89 94 266 -123 276 -47 2 -93 -3 -119 -11z m212 -82 c108 -51
39 -139 -110 -139 -173 1 -225 116 -70 156 45 12 138 3 180 -17z"/>
</g>
</svg>
