<?xml version="1.0" standalone="no"?>
<!DOCTYPE svg PUBLIC "-//W3C//DTD SVG 20010904//EN" "http://www.w3.org/TR/2001/REC-SVG-20010904/DTD/svg10.dtd">
<svg version="1.0" xmlns="http://www.w3.org/2000/svg"
    width="1200.000000pt" height="991.000000pt" viewBox="0 0 1200.000000 991.000000"
    preserveAspectRatio="xMidYMid meet">

    <g transform="translate(0.000000,991.000000) scale(0.100000,-0.100000)"
        fill="#eee" stroke="#eee">
        <path
            d="M6105 9302 c-40 -13 -63 -38 -74 -79 -6 -23 -16 -45 -21 -48 -6 -3
-10 -15 -10 -27 0 -11 -6 -32 -14 -46 -7 -15 -23 -49 -35 -77 -12 -27 -26 -57
-32 -65 -5 -8 -13 -25 -19 -37 -5 -13 -14 -23 -19 -23 -5 0 -12 -13 -16 -30
-4 -16 -11 -30 -16 -30 -5 0 -9 -7 -9 -16 0 -9 -6 -30 -14 -47 -7 -18 -19 -48
-26 -67 -7 -19 -23 -59 -36 -88 -13 -29 -24 -58 -24 -64 0 -6 -9 -29 -19 -52
-17 -36 -31 -69 -36 -86 -20 -66 -25 -92 -25 -126 0 -33 5 -44 30 -62 40 -30
100 -30 126 1 10 12 25 33 33 46 15 28 68 167 84 224 6 20 15 37 19 37 4 0 8
7 8 15 0 8 8 30 17 50 12 25 22 34 32 29 9 -3 21 -7 26 -8 6 -2 24 -8 40 -15
17 -6 50 -19 75 -27 25 -9 52 -19 60 -24 9 -4 31 -11 50 -15 19 -4 41 -11 50
-16 27 -14 104 -47 153 -65 47 -17 49 -19 42 -48 -3 -17 -9 -47 -12 -66 -3
-19 -9 -37 -12 -40 -4 -3 -17 -39 -30 -80 -12 -41 -36 -101 -52 -133 -34 -66
-35 -83 -12 -131 15 -32 21 -35 62 -38 25 -2 58 1 72 6 26 9 71 72 83 117 4
13 11 33 15 44 29 70 43 110 65 192 14 50 26 101 26 112 0 12 5 21 10 21 6 0
10 10 10 23 0 12 9 36 20 52 11 17 20 40 20 51 0 12 7 27 15 34 8 7 15 19 15
26 0 7 9 33 19 56 41 91 51 117 51 130 0 8 4 18 8 24 16 17 34 124 27 157 -11
52 -31 67 -90 67 -43 0 -55 -4 -77 -27 -14 -16 -32 -55 -41 -88 -8 -33 -25
-85 -37 -115 -12 -30 -24 -65 -27 -77 -3 -13 -9 -23 -13 -23 -5 0 -11 -13 -15
-30 -6 -26 -11 -30 -41 -30 -19 0 -34 5 -34 10 0 6 -9 10 -20 10 -11 0 -28 4
-38 10 -24 13 -142 58 -174 66 -16 3 -28 10 -28 14 0 4 -22 10 -50 14 -27 4
-50 11 -50 16 0 6 -9 10 -21 10 -56 0 -74 40 -41 88 11 15 29 54 42 87 13 33
36 88 52 123 45 99 35 168 -29 201 -24 12 -37 12 -68 3z" />
        <path
            d="M3035 8971 c-43 -11 -129 -56 -169 -88 -19 -15 -50 -57 -68 -93 -31
-61 -33 -71 -33 -171 0 -62 5 -116 12 -130 6 -13 23 -49 37 -80 30 -69 66
-100 179 -155 62 -30 106 -44 152 -49 76 -9 76 -8 46 -126 -10 -41 -22 -105
-26 -144 -4 -38 -11 -75 -16 -81 -8 -10 -15 -49 -39 -249 -6 -49 -15 -124 -21
-165 -25 -191 -28 -257 -33 -580 -2 -190 -7 -352 -11 -360 -18 -47 127 -183
410 -383 112 -79 109 -74 55 -132 -66 -69 -119 -133 -160 -191 -45 -65 -130
-205 -130 -216 0 -4 -4 -8 -10 -8 -5 0 -10 -5 -10 -12 0 -6 -20 -52 -44 -102
-24 -50 -49 -109 -56 -131 -7 -22 -16 -44 -20 -50 -4 -5 -17 -41 -30 -80 -12
-38 -28 -84 -36 -102 -8 -17 -14 -35 -14 -40 0 -16 -40 -146 -51 -166 -16 -29
-21 -238 -11 -382 14 -177 31 -246 109 -414 62 -138 90 -188 169 -306 46 -69
84 -129 84 -132 0 -3 15 -24 33 -47 18 -23 43 -62 56 -88 12 -26 35 -63 52
-84 16 -20 29 -40 29 -45 0 -4 -15 -11 -32 -14 -103 -23 -344 -225 -419 -350
-16 -27 -34 -57 -39 -65 -61 -99 -74 -228 -30 -290 11 -15 20 -32 20 -37 0
-15 130 -137 178 -167 88 -55 179 -96 237 -105 33 -6 76 -13 96 -17 22 -4 53
0 83 10 62 21 117 21 138 -1 8 -10 29 -28 44 -40 37 -28 69 -55 119 -102 50
-47 123 -98 231 -162 46 -27 84 -56 84 -63 0 -7 -20 -38 -44 -69 -68 -87 -79
-117 -75 -206 4 -71 7 -80 42 -123 20 -25 56 -58 80 -74 23 -16 44 -32 47 -35
8 -10 101 -31 135 -31 57 0 121 23 160 57 21 19 43 35 49 35 10 0 90 -100 164
-203 12 -18 47 -57 77 -88 30 -31 55 -61 55 -66 0 -6 -15 -24 -33 -40 -77 -68
-102 -148 -71 -228 9 -25 21 -45 25 -45 5 0 9 -6 9 -14 0 -7 20 -32 44 -54
196 -181 411 -175 594 18 24 25 50 59 58 77 7 17 23 35 34 38 21 7 120 -3 120
-12 0 -2 -11 -19 -24 -36 -13 -18 -27 -48 -31 -67 -4 -19 -12 -42 -18 -51 -14
-22 18 -96 44 -104 11 -4 19 -10 19 -14 0 -5 24 -19 53 -32 49 -23 63 -24 242
-24 171 1 195 3 240 22 28 12 70 29 95 38 88 32 183 147 218 265 34 116 42
149 44 180 2 22 9 36 19 38 11 2 20 -14 33 -60 10 -35 25 -76 33 -93 36 -71
147 -138 256 -155 34 -5 74 -11 88 -14 38 -8 162 18 203 43 33 21 127 121 135
144 2 7 12 24 22 39 11 14 19 35 19 46 0 12 4 24 10 27 6 3 10 33 10 65 0 65
7 90 24 90 6 0 33 24 60 52 42 46 60 80 83 150 9 30 -25 123 -63 167 -21 24
-60 54 -90 68 -46 21 -64 25 -125 21 l-71 -4 -27 36 c-14 19 -32 39 -38 43 -7
4 -13 15 -13 22 0 11 13 15 50 15 28 0 50 4 50 10 0 5 15 13 33 19 55 17 121
42 132 51 5 4 26 11 45 15 19 4 40 11 45 14 6 4 39 18 75 30 61 21 229 98 240
111 7 7 96 50 104 50 9 0 115 69 133 86 7 7 29 22 49 34 19 13 62 49 95 81 32
33 60 59 63 59 6 0 75 60 108 94 41 41 138 173 180 242 39 63 108 207 108 223
0 5 3 11 8 13 21 9 135 280 147 346 4 23 11 44 15 47 5 3 14 31 20 63 6 31 15
64 19 73 5 9 12 41 16 72 4 32 11 57 15 57 4 0 11 40 14 90 6 73 10 90 24 90
20 0 157 -87 247 -158 6 -4 18 -11 27 -14 9 -4 61 -36 116 -72 55 -36 110 -66
121 -66 26 0 93 33 141 69 42 31 54 38 145 89 70 38 142 85 221 141 23 16 52
32 65 36 13 4 26 11 29 14 8 11 143 107 170 121 14 7 27 16 30 19 3 3 38 29
79 56 107 73 114 78 141 102 14 13 28 23 33 23 10 0 120 82 185 138 15 13 47
37 72 55 25 17 65 47 90 68 62 50 148 109 160 109 5 0 10 5 10 10 0 6 5 10 12
10 6 0 26 11 44 25 18 14 39 25 46 25 7 -1 29 -23 48 -50 19 -27 45 -55 58
-61 12 -7 22 -16 22 -21 0 -4 6 -8 14 -8 7 0 19 -7 26 -15 10 -11 36 -15 110
-15 86 0 107 4 171 30 132 53 169 120 169 302 0 59 -4 109 -9 112 -4 3 -11 24
-15 46 -3 22 -10 40 -14 40 -4 0 -21 21 -37 46 -44 70 -110 124 -154 125 -20
1 -49 3 -66 4 -16 2 -61 -1 -100 -6 -63 -7 -96 -20 -173 -63 -33 -19 -92 -78
-92 -92 0 -6 -7 -17 -14 -24 -8 -6 -16 -30 -18 -53 -3 -37 -6 -42 -26 -39 -13
1 -56 23 -95 48 -40 25 -106 67 -147 92 -41 26 -95 62 -120 81 -25 18 -56 38
-70 44 -14 7 -27 14 -30 17 -3 4 -39 24 -80 46 -41 22 -107 64 -146 92 -39 29
-74 52 -77 52 -8 0 -153 89 -212 130 -22 15 -62 39 -90 54 -64 35 -75 42 -154
96 -80 55 -159 103 -266 160 -44 24 -141 82 -215 130 -175 113 -242 145 -294
142 -39 -3 -165 -40 -176 -52 -6 -7 -118 -60 -126 -60 -3 0 -20 -6 -37 -14
-115 -49 -146 -64 -182 -87 -47 -31 -128 -69 -147 -69 -8 0 -22 -6 -33 -14
-54 -37 -57 -36 -197 109 -73 75 -173 167 -223 204 -149 111 -235 171 -245
171 -6 0 -10 4 -10 8 0 5 -15 16 -32 25 -18 9 -42 23 -53 29 -96 62 -173 108
-178 108 -3 0 -25 13 -49 29 -47 31 -252 127 -295 137 -15 4 -38 13 -52 20
-14 8 -33 14 -41 14 -9 0 -20 4 -25 9 -6 4 -41 18 -80 31 -90 29 -172 59 -212
76 -17 8 -39 14 -48 14 -9 0 -26 5 -38 12 -21 11 -81 27 -192 49 -27 6 -57 15
-67 20 -9 5 -65 15 -125 23 -124 16 -591 13 -664 -3 -68 -16 -79 -14 -79 13 0
14 4 27 9 30 4 3 11 25 15 48 8 53 67 227 107 315 16 36 29 78 29 93 0 25 -6
30 -52 46 -61 19 -262 117 -278 135 -6 6 -150 89 -155 89 -2 0 -52 28 -112 63
-59 35 -115 66 -123 70 -8 4 -31 17 -50 28 -55 34 -182 99 -193 99 -5 0 -35
15 -66 34 -106 64 -238 133 -341 179 -19 8 -64 28 -100 45 -36 16 -85 39 -110
50 -25 11 -61 25 -80 31 -87 25 -168 62 -290 133 -53 30 -54 32 -35 92 10 30
15 69 12 88 -3 18 -10 65 -16 103 -24 152 -87 254 -187 304 -27 13 -58 29 -69
34 -25 13 -209 19 -250 8z m225 -121 c106 -39 159 -123 175 -281 12 -113 3
-136 -78 -202 l-72 -59 -75 5 c-93 6 -104 8 -171 43 -87 45 -116 72 -135 122
-10 26 -21 51 -26 57 -14 16 -9 128 9 178 10 27 31 62 48 79 71 72 217 98 325
58z m268 -609 c117 -67 184 -98 282 -131 52 -18 111 -40 130 -50 61 -31 164
-77 189 -85 27 -8 75 -33 231 -120 58 -32 132 -71 165 -87 76 -38 127 -65 190
-100 28 -16 58 -31 68 -34 9 -4 17 -10 17 -15 0 -5 4 -9 9 -9 6 0 76 -38 156
-85 81 -47 149 -85 152 -85 2 0 24 -13 47 -29 24 -17 55 -33 69 -37 15 -3 27
-9 27 -13 0 -4 24 -17 54 -30 84 -35 84 -33 33 -173 -45 -126 -70 -207 -82
-268 -4 -19 -11 -39 -15 -45 -4 -5 -10 -22 -14 -37 -5 -23 -12 -28 -39 -28
-34 0 -62 -7 -172 -40 -38 -12 -101 -28 -140 -35 -128 -26 -190 -40 -200 -47
-6 -3 -28 -9 -50 -13 -51 -9 -169 -48 -173 -57 -2 -5 -10 -8 -18 -8 -19 0
-208 -82 -212 -92 -2 -4 -8 -8 -14 -8 -6 0 -32 -16 -59 -35 -26 -19 -72 -47
-101 -62 -29 -15 -55 -30 -58 -34 -3 -3 -25 -17 -50 -29 -53 -27 -121 -76
-170 -123 -45 -43 -106 -87 -119 -87 -10 0 -165 114 -265 194 -21 17 -52 39
-68 49 -16 9 -45 32 -65 50 -20 17 -49 44 -66 59 l-30 26 1 366 c1 200 5 382
10 403 6 21 15 90 21 153 6 63 16 144 22 180 5 36 14 92 19 125 16 113 68 380
79 408 6 16 11 40 12 55 0 31 77 102 110 102 11 0 51 -17 87 -39z m2533 -1502
c57 -5 108 -14 114 -18 5 -5 30 -12 55 -16 25 -4 50 -10 55 -14 6 -3 35 -11
65 -17 88 -18 184 -45 194 -55 6 -5 16 -9 24 -9 8 0 28 -7 45 -14 18 -8 61
-24 97 -36 36 -12 79 -27 95 -35 17 -7 44 -17 60 -21 17 -4 35 -10 40 -14 6
-4 28 -13 50 -20 22 -7 82 -32 133 -56 52 -24 98 -44 103 -44 5 0 9 -4 9 -10
0 -5 4 -10 8 -10 7 0 149 -80 212 -120 8 -5 28 -17 45 -26 79 -44 348 -241
412 -301 39 -38 91 -86 115 -109 81 -77 153 -167 186 -232 19 -36 57 -91 86
-122 28 -31 68 -83 88 -116 41 -66 148 -279 148 -295 0 -8 96 -217 120 -261 6
-10 10 -23 10 -30 1 -7 9 -31 20 -53 11 -22 19 -48 20 -57 0 -9 4 -19 9 -22
12 -8 37 -108 52 -206 6 -47 17 -88 23 -92 8 -5 11 -91 10 -280 -1 -223 -4
-287 -18 -348 -44 -186 -59 -246 -66 -265 -5 -11 -20 -57 -34 -102 -14 -45
-29 -90 -34 -100 -5 -10 -16 -34 -25 -53 -12 -28 -68 -142 -108 -220 -4 -8
-19 -38 -33 -66 -32 -67 -66 -125 -91 -159 -58 -79 -97 -125 -146 -170 -29
-27 -80 -77 -114 -110 -33 -33 -93 -80 -132 -104 -40 -24 -73 -46 -73 -50 0
-3 -17 -15 -37 -25 -21 -10 -51 -25 -68 -33 -162 -84 -232 -116 -299 -139 -44
-15 -91 -33 -105 -41 -15 -7 -32 -13 -39 -13 -7 0 -20 -4 -30 -10 -77 -44
-212 -63 -356 -49 -54 6 -105 8 -112 5 -8 -3 -14 1 -14 10 0 10 -6 14 -15 10
-8 -3 -15 -1 -15 4 0 6 11 10 24 10 14 0 28 5 31 10 3 6 14 10 23 10 31 1 207
143 315 254 66 68 207 259 207 281 0 3 23 44 50 91 28 47 50 89 50 94 0 5 6
13 14 17 15 9 70 113 93 177 13 38 23 86 54 266 13 76 8 335 -8 365 -5 11 -20
43 -32 70 -12 28 -29 63 -37 78 -8 16 -14 34 -14 42 0 7 -6 18 -14 24 -8 7
-17 24 -21 39 -4 15 -12 34 -20 42 -7 8 -29 46 -49 83 -36 67 -44 80 -78 117
-10 11 -43 68 -75 127 -31 59 -61 113 -65 118 -4 6 -25 31 -45 56 -48 58 -96
118 -120 147 -34 44 -144 54 -523 48 -184 -2 -357 -7 -385 -10 -27 -2 -121 -8
-208 -11 -87 -4 -170 -10 -185 -14 -31 -9 -52 -4 -52 12 0 7 -29 46 -65 87
-35 41 -64 78 -65 82 0 4 -10 18 -22 31 -13 12 -57 65 -98 117 -41 51 -84 104
-95 116 -11 13 -36 45 -55 71 -19 27 -40 53 -46 58 -5 6 -27 32 -48 58 -77 97
-122 108 -436 110 -233 2 -236 2 -325 -27 -49 -15 -108 -32 -130 -36 -58 -12
-91 -26 -142 -61 -38 -27 -153 -118 -203 -162 -8 -7 -46 -37 -84 -67 -97 -76
-142 -126 -278 -308 -15 -21 -39 -59 -54 -87 -15 -27 -29 -52 -33 -55 -26 -21
-106 -172 -116 -221 -4 -19 -11 -38 -15 -44 -4 -5 -20 -44 -34 -85 -15 -41
-31 -84 -36 -95 -12 -24 -29 -155 -23 -172 3 -7 0 -13 -6 -13 -11 0 -63 76
-89 130 -7 14 -23 43 -37 65 -14 22 -28 47 -31 55 -3 8 -18 47 -34 85 -63 158
-77 228 -87 439 -6 116 5 207 38 311 45 144 90 282 99 300 5 11 21 48 35 83
69 169 121 264 239 437 57 84 184 210 296 295 64 48 123 94 131 102 33 32 260
168 280 168 5 0 9 4 9 9 0 5 14 14 30 21 17 7 30 16 30 21 0 5 5 9 11 9 6 0
23 8 37 18 15 10 68 35 117 56 50 20 97 40 105 45 8 4 58 20 110 35 52 15 111
31 130 37 38 10 104 24 190 40 48 9 128 31 170 47 8 3 17 6 20 6 3 1 10 4 15
8 6 3 68 9 138 13 116 7 132 10 165 34 37 26 40 26 257 31 121 3 230 7 241 8
12 1 68 -3 125 -9z m2989 -827 c58 -30 241 -142 250 -152 8 -10 138 -84 218
-124 40 -19 78 -40 85 -46 33 -29 161 -120 168 -120 4 0 14 -6 21 -12 7 -7 34
-23 59 -35 45 -21 153 -88 408 -255 14 -10 36 -22 48 -27 11 -5 24 -14 27 -20
3 -5 20 -12 36 -16 17 -4 30 -11 30 -16 0 -5 5 -9 12 -9 12 0 38 -16 173 -110
87 -60 105 -71 150 -96 17 -9 57 -35 90 -58 33 -23 83 -53 110 -66 28 -13 53
-28 56 -33 9 -13 -17 -37 -71 -66 -25 -14 -47 -27 -50 -30 -3 -4 -18 -15 -35
-26 -16 -10 -69 -49 -117 -87 -47 -37 -90 -68 -95 -68 -4 0 -27 -18 -50 -40
-24 -21 -89 -71 -145 -111 -57 -40 -143 -102 -193 -139 -49 -36 -108 -77 -130
-90 -22 -13 -58 -37 -80 -54 -43 -34 -54 -41 -135 -82 -30 -15 -59 -33 -65
-40 -11 -12 -150 -106 -175 -117 -8 -4 -22 -11 -30 -16 -8 -6 -47 -28 -86 -51
-39 -22 -81 -52 -94 -65 -27 -29 -42 -32 -38 -9 2 10 -10 23 -29 34 -18 9 -38
22 -45 28 -30 24 -90 52 -100 46 -5 -3 -23 3 -39 15 -15 11 -33 21 -38 21 -5
0 -12 9 -16 20 -10 33 -124 113 -247 175 -17 9 -19 17 -14 55 16 116 18 167 7
174 -6 4 -11 31 -11 59 -1 29 -7 70 -16 92 -8 22 -17 75 -21 118 -3 42 -9 77
-13 77 -4 0 -11 17 -15 38 -4 20 -12 51 -20 67 -32 76 -55 135 -55 144 0 6
-27 66 -59 133 -33 68 -63 135 -66 150 -11 45 -118 248 -147 282 -10 11 -21
36 -24 55 -4 21 -33 70 -71 120 -34 46 -63 91 -63 100 0 16 42 41 68 41 16 0
106 43 147 70 17 11 42 26 58 32 15 7 27 16 27 19 0 4 14 10 30 14 34 7 154
59 245 105 74 37 105 38 175 2z m-4165 -756 c187 -7 209 -13 253 -61 58 -65
92 -107 92 -112 0 -5 28 -39 79 -98 9 -11 44 -54 77 -95 32 -41 66 -82 74 -90
8 -9 42 -52 75 -95 33 -43 69 -88 80 -101 11 -12 40 -48 64 -78 40 -50 48 -56
82 -56 31 0 41 5 55 28 l16 29 227 9 c124 5 296 9 381 9 85 0 166 4 179 9 14
5 98 3 203 -4 174 -13 180 -14 198 -39 11 -14 26 -33 33 -41 40 -43 117 -151
137 -190 47 -93 97 -176 122 -201 8 -8 17 -21 22 -29 4 -8 18 -33 31 -55 52
-87 166 -327 177 -372 16 -67 14 -242 -5 -343 -27 -145 -43 -214 -54 -235 -7
-11 -40 -69 -75 -128 -35 -59 -79 -136 -98 -171 -19 -34 -52 -88 -72 -118 -21
-31 -38 -60 -38 -65 0 -4 -32 -39 -70 -76 -39 -38 -70 -73 -70 -78 0 -5 -5 -9
-11 -9 -6 0 -28 -15 -49 -33 -20 -17 -54 -45 -75 -62 -21 -16 -46 -37 -56 -47
-9 -9 -28 -19 -41 -23 -12 -4 -29 -13 -37 -19 -20 -16 -342 -21 -412 -6 -30 6
-97 16 -149 21 -52 5 -105 14 -118 19 -13 6 -72 18 -130 26 -159 25 -245 40
-262 46 -8 4 -45 10 -82 13 -37 4 -70 10 -73 15 -3 4 -33 11 -67 15 -82 9
-173 32 -225 56 -24 10 -47 19 -53 19 -6 0 -21 6 -33 14 -12 7 -47 21 -77 31
-30 10 -75 25 -100 35 -25 10 -64 25 -87 34 -172 65 -224 89 -303 140 -36 24
-99 59 -140 80 -57 28 -84 49 -112 86 -21 27 -38 54 -38 59 0 5 -4 11 -8 13
-5 2 -28 41 -52 88 -45 87 -53 101 -108 182 -18 25 -32 50 -32 55 0 10 -134
143 -145 143 -4 0 -29 15 -55 34 -48 34 -76 45 -180 71 -158 40 -150 36 -172
79 -12 23 -26 45 -33 51 -42 36 -75 96 -81 149 -4 31 -11 59 -15 62 -12 7 -11
181 1 189 6 3 10 17 10 31 0 24 22 88 55 159 8 17 17 44 21 60 4 17 10 35 14
40 4 6 10 22 14 37 3 14 27 59 53 100 62 94 69 106 89 146 9 17 20 32 25 32 5
0 9 5 9 10 0 6 14 24 30 40 17 16 30 33 30 36 0 8 92 117 125 149 20 19 110
92 169 138 46 36 109 86 141 114 44 37 118 70 177 78 29 4 58 11 63 15 27 22
173 49 235 45 36 -3 115 -7 175 -9z m6605 -165 c71 -75 80 -100 80 -234 0 -99
-3 -118 -20 -139 -25 -32 -80 -54 -165 -68 -60 -10 -70 -9 -98 10 -77 49 -103
86 -124 174 -7 32 -23 76 -35 97 -13 24 -18 46 -14 62 8 32 53 87 71 87 7 0
15 4 17 9 7 17 125 50 182 51 58 0 60 -1 106 -49z m-7825 -1701 c5 -4 30 -11
54 -15 188 -31 400 -248 375 -384 -11 -55 -63 -181 -76 -181 -12 0 -9 -45 4
-58 36 -36 84 4 126 103 22 54 38 67 49 38 3 -10 14 -28 22 -39 9 -12 23 -32
31 -45 8 -13 39 -47 68 -76 46 -48 52 -58 52 -96 0 -24 4 -47 9 -52 12 -13 23
-445 11 -445 -5 0 -21 5 -36 10 -18 7 -37 8 -56 1 -25 -9 -36 -4 -103 40 -41
27 -76 49 -79 49 -2 0 -32 19 -67 42 -59 38 -96 69 -216 180 -22 21 -46 38
-53 38 -23 0 -3 25 23 28 29 4 45 37 33 68 -5 14 -17 16 -67 11 -33 -3 -66
-10 -73 -16 -7 -6 -51 -22 -97 -36 -90 -27 -140 -27 -233 3 -59 19 -153 67
-182 93 -11 10 -24 19 -28 19 -15 0 -107 104 -127 142 -29 57 -25 94 23 198
73 156 320 369 458 394 34 6 142 -4 155 -14z m872 -782 c78 -53 159 -92 323
-158 85 -34 160 -63 165 -64 45 -11 102 -29 110 -36 6 -4 24 -12 40 -18 17 -6
55 -20 85 -32 52 -21 123 -37 265 -61 33 -5 69 -14 80 -19 11 -5 63 -14 115
-20 52 -6 99 -15 105 -19 5 -5 48 -11 94 -15 46 -4 92 -11 102 -16 10 -6 46
-13 81 -16 35 -4 68 -10 73 -14 6 -4 46 -10 90 -14 44 -3 107 -13 140 -21 33
-8 84 -14 113 -15 28 0 52 -5 52 -10 0 -18 60 -47 110 -54 26 -4 61 -13 76
-21 16 -8 70 -17 121 -21 93 -7 101 -10 141 -58 6 -8 12 -18 12 -21 0 -4 16
-26 35 -49 19 -24 35 -46 35 -50 0 -4 -12 -19 -26 -34 -14 -15 -33 -39 -42
-54 -19 -32 -53 -36 -117 -14 -22 8 -74 24 -115 36 -98 28 -167 49 -210 66
-19 7 -46 15 -60 18 -14 3 -38 17 -54 31 -16 14 -37 25 -47 25 -9 0 -24 3 -32
6 -10 3 -26 -7 -43 -26 -15 -17 -62 -47 -103 -67 -42 -20 -103 -55 -136 -78
-82 -56 -150 -95 -169 -95 -48 0 -164 101 -369 320 -29 31 -188 179 -219 203
-19 15 -34 18 -80 13 -32 -3 -66 -10 -75 -15 -10 -6 -54 -17 -98 -25 -136 -25
-296 -66 -305 -77 -3 -4 -21 -10 -40 -13 -19 -4 -48 -13 -65 -21 -74 -32 -87
-30 -147 27 l-55 54 -7 124 c-3 69 -8 175 -11 235 -3 61 -7 134 -9 163 -5 63
2 65 71 20z m859 -630 c48 -46 106 -103 129 -128 22 -24 70 -76 108 -115 37
-40 67 -76 67 -83 0 -6 -9 -13 -19 -17 -55 -17 -151 -151 -151 -210 0 -41 36
-123 74 -169 50 -62 107 -92 188 -100 103 -11 155 18 215 119 35 58 41 107 31
234 -3 32 1 36 57 69 33 20 62 38 65 41 9 11 64 46 90 57 33 14 52 3 153 -87
124 -111 206 -201 207 -225 0 -17 -8 -23 -40 -28 -21 -3 -62 -20 -90 -36 -28
-17 -56 -30 -63 -30 -7 0 -22 -6 -33 -14 -11 -8 -37 -17 -57 -21 -21 -4 -39
-11 -42 -15 -3 -5 -24 -11 -48 -15 -23 -4 -54 -13 -68 -20 -14 -8 -68 -19
-120 -25 -52 -6 -128 -15 -169 -20 -41 -5 -175 -9 -296 -9 -217 -1 -223 0
-310 27 -96 31 -194 78 -207 99 -4 7 -12 13 -17 13 -19 0 -186 148 -222 198
-52 69 -63 83 -80 100 -10 9 -18 22 -18 29 0 7 -4 13 -8 13 -4 0 -15 13 -24
28 -9 15 -28 40 -42 54 -25 24 -26 30 -22 104 2 44 5 80 5 82 1 1 10 2 20 2
11 0 22 4 25 9 3 5 22 12 42 16 20 3 44 10 53 14 30 15 116 43 156 52 22 5 81
18 130 29 50 12 118 27 153 34 34 7 65 16 69 19 12 13 20 7 109 -75z m-1026
57 c14 -8 32 -18 40 -22 8 -4 24 -15 34 -25 11 -10 23 -18 27 -18 5 0 22 -20
39 -44 24 -35 30 -55 30 -95 0 -66 -10 -89 -63 -144 -44 -47 -45 -47 -111 -47
-50 0 -68 4 -72 15 -4 8 -16 15 -28 15 -23 0 -60 31 -100 83 -37 48 -34 127 6
168 8 8 24 30 38 49 53 77 103 98 160 65z m2087 -291 c87 -38 226 -84 252 -84
11 0 23 -4 26 -10 3 -5 14 -10 24 -10 10 0 62 -14 115 -31 83 -27 96 -34 96
-53 0 -22 54 -93 99 -131 31 -26 102 -65 118 -65 7 0 13 -4 13 -10 0 -5 16
-10 36 -10 l37 0 -5 -63 c-5 -61 -24 -109 -63 -156 -80 -97 -108 -111 -217
-111 -109 1 -210 30 -263 77 -49 44 -71 158 -41 213 8 14 36 37 63 51 40 21
49 31 51 57 3 26 -1 34 -23 44 -21 9 -31 9 -46 0 -29 -18 -42 -15 -75 21 -69
72 -133 135 -203 198 -90 81 -87 113 6 73z m899 -30 c6 -8 15 -14 20 -14 19 0
54 -67 54 -102 0 -41 -45 -128 -66 -128 -8 0 -17 -7 -20 -15 -5 -11 -23 -15
-75 -15 -40 0 -69 4 -69 10 0 6 -10 15 -22 20 -41 18 -109 70 -91 70 4 0 2 5
-5 12 -7 7 -12 20 -12 31 0 27 62 117 80 117 9 0 21 5 27 11 29 29 157 31 179
3z m-1546 -139 c7 -8 17 -15 22 -15 14 0 101 -78 115 -103 7 -12 12 -32 13
-44 0 -33 -34 -104 -68 -140 -26 -28 -38 -33 -77 -33 -31 0 -47 5 -51 15 -4 8
-14 15 -25 15 -38 0 -109 92 -109 143 0 16 5 38 11 50 16 31 81 97 95 97 6 0
17 7 24 15 7 8 18 15 25 15 7 0 18 -7 25 -15z m-805 -389 c17 -22 193 -107
253 -123 32 -7 80 -20 107 -27 l50 -13 -57 -56 c-34 -33 -82 -68 -115 -83 -99
-46 -213 -23 -311 62 -55 46 -92 105 -92 143 0 29 56 100 90 114 21 8 63 -1
75 -17z m1425 -45 c0 -17 -4 -32 -9 -35 -5 -3 -12 -23 -16 -43 -10 -59 -46
-124 -95 -174 -38 -38 -59 -50 -130 -71 -165 -50 -305 -59 -420 -27 -94 26
-110 58 -67 134 18 33 32 43 77 58 58 19 83 35 75 46 -6 10 110 32 214 41 95
9 117 13 127 23 4 4 16 7 27 7 10 0 33 6 50 14 33 14 146 53 160 55 4 1 7 -12
7 -28z" />
        <path
            d="M5955 6300 c-175 -30 -373 -103 -388 -145 -4 -8 -13 -15 -22 -15 -17
0 -74 -59 -75 -77 0 -7 -9 -17 -20 -23 -11 -6 -20 -19 -20 -29 0 -10 -6 -24
-14 -30 -8 -7 -17 -28 -21 -48 -3 -19 -10 -43 -15 -52 -27 -49 -54 -311 -32
-311 5 0 12 -22 16 -50 4 -27 11 -50 16 -50 6 0 10 -7 10 -17 0 -21 47 -120
74 -156 49 -64 79 -97 90 -97 6 -1 27 -14 46 -30 19 -17 39 -30 45 -30 6 0 18
-8 27 -19 13 -15 14 -26 5 -59 -9 -35 -8 -44 17 -87 l28 -47 66 4 c65 3 67 2
70 -22 2 -14 13 -35 25 -47 28 -31 108 -33 135 -4 28 32 39 46 45 61 3 8 6
-17 6 -57 1 -69 2 -73 34 -97 40 -30 63 -32 97 -9 31 22 45 39 70 86 l20 37
120 0 c66 0 120 4 120 9 0 5 15 11 33 15 62 12 162 69 220 125 31 30 57 61 57
67 0 7 4 14 8 16 29 12 122 228 122 284 0 12 4 25 9 28 13 8 19 123 10 211
-13 147 -42 239 -105 335 -54 83 -104 130 -179 170 -33 18 -65 39 -71 46 -6 8
-20 14 -31 14 -11 0 -26 7 -33 15 -7 8 -22 15 -34 15 -12 0 -26 4 -32 8 -5 5
-36 16 -69 26 -33 9 -74 21 -92 27 -42 13 -324 20 -388 9z m-121 -481 c57 -44
85 -74 96 -99 17 -40 9 -168 -10 -184 -8 -6 -26 -28 -40 -48 -29 -44 -65 -61
-125 -60 -71 1 -125 39 -165 118 -25 47 -26 106 -2 147 29 53 73 107 87 107 7
0 18 6 25 14 18 23 107 26 134 5z m810 -354 c45 -29 56 -41 62 -71 11 -62 -1
-111 -42 -162 -78 -97 -123 -126 -194 -127 -50 0 -58 3 -92 36 -21 20 -44 56
-52 80 -17 49 -21 129 -7 129 5 0 12 8 15 18 10 28 70 89 112 111 24 12 59 20
91 21 43 0 62 -6 107 -35z" />
        <path
            d="M4314 4945 c-3 -14 -3 -42 0 -63 12 -69 23 -167 19 -172 -3 -3 -20
13 -39 35 -61 70 -76 83 -90 78 -28 -11 -16 -60 43 -181 16 -31 16 -33 -5 -48
-35 -24 -142 -135 -142 -147 0 -3 -24 -44 -52 -89 -53 -83 -53 -83 -52 -163 1
-66 5 -87 25 -120 37 -63 89 -123 124 -144 44 -26 125 -51 166 -52 43 -1 179
46 179 62 0 4 24 21 53 37 111 65 287 268 287 332 0 33 -34 79 -144 194 -27
28 -73 83 -102 121 -92 121 -95 125 -105 125 -15 0 -32 20 -57 65 -30 56 -52
114 -52 136 0 31 -48 25 -56 -6z" />
        <path
            d="M3632 4044 c-24 -17 -29 -39 -9 -48 9 -3 7 -9 -5 -19 -21 -17 -23
-33 -5 -40 16 -6 57 10 57 23 0 5 5 10 10 10 6 0 16 4 23 10 7 5 26 20 42 34
36 29 26 45 -18 28 -26 -10 -33 -9 -40 3 -10 19 -27 19 -55 -1z" />
        <path
            d="M3790 4003 c-8 -3 -19 -12 -23 -19 -4 -8 -13 -14 -20 -14 -7 -1 -28
-14 -47 -31 -29 -24 -32 -31 -20 -39 25 -15 169 78 155 100 -7 11 -21 12 -45
3z" />
        <path
            d="M3800 3926 c-77 -51 -96 -71 -80 -81 7 -4 23 -1 37 6 22 12 26 11 34
-4 6 -9 16 -17 23 -17 16 0 156 98 156 109 0 14 -32 23 -44 11 -14 -14 -26
-12 -26 5 0 26 -33 17 -100 -29z" />
        <path
            d="M3986 3905 c-20 -14 -39 -25 -42 -25 -14 0 -84 -55 -84 -66 0 -18 31
-18 56 1 28 21 34 18 28 -15 -4 -16 -3 -30 2 -30 14 0 144 91 144 101 0 5 -11
9 -25 9 -20 0 -25 5 -25 25 0 14 -4 25 -9 25 -4 0 -25 -11 -45 -25z" />
        <path d="M4047 3798 c-50 -35 -60 -58 -27 -58 30 0 110 58 110 79 0 20 -36 11
-83 -21z" />
        <path
            d="M7314 3796 c-11 -8 -52 -27 -90 -42 -38 -14 -76 -30 -85 -34 -31 -16
-154 -21 -224 -10 -230 38 -313 16 -404 -105 -47 -63 -81 -134 -81 -172 0 -16
-5 -34 -10 -39 -6 -6 -12 -58 -13 -115 -1 -97 0 -108 30 -169 29 -62 47 -86
89 -120 86 -69 160 -85 273 -60 89 19 201 85 201 119 0 6 5 11 10 11 9 0 31
42 74 142 9 20 16 46 16 57 0 12 7 38 16 59 8 20 16 64 18 96 2 58 3 60 37 71
19 7 64 16 99 20 72 8 100 22 100 47 0 20 -31 27 -135 31 -38 1 -70 6 -70 12
0 11 139 121 175 138 31 15 49 36 50 60 0 22 -46 23 -76 3z" />
        <path
            d="M5246 3642 c-40 -16 -97 -66 -128 -112 -23 -32 -25 -118 -3 -126 8
-4 15 -13 15 -21 0 -8 22 -36 48 -62 38 -37 64 -52 120 -70 63 -21 77 -22 118
-12 91 23 135 62 163 143 10 31 9 45 -3 82 -52 151 -200 231 -330 178z m209
-114 c47 -49 60 -87 50 -142 -6 -31 -14 -39 -63 -61 -61 -28 -82 -27 -156 6
-60 26 -116 95 -116 142 0 23 54 82 90 99 8 4 46 6 84 4 66 -3 69 -5 111 -48z" />
        <path
            d="M4956 3275 c-32 -30 -32 -37 -1 -100 34 -69 43 -82 100 -139 102
-103 174 -131 340 -131 125 0 161 13 226 82 51 53 55 79 19 115 -30 29 -30 29
-60 11 -16 -9 -30 -20 -30 -24 0 -3 -18 -19 -40 -34 -39 -27 -43 -27 -142 -22
-70 3 -114 10 -138 22 -40 20 -117 91 -131 120 -29 61 -83 125 -104 125 -7 0
-24 -11 -39 -25z" />
        <path
            d="M6835 2834 c-62 -29 -90 -51 -93 -72 -4 -26 19 -30 38 -7 7 8 18 15
24 15 6 0 27 14 46 30 42 35 32 57 -15 34z" />
        <path
            d="M6885 2797 c-22 -17 -44 -37 -48 -44 -4 -7 -12 -13 -17 -13 -10 0
-50 -36 -50 -44 0 -2 7 -7 17 -10 9 -4 32 4 55 19 21 14 38 21 38 15 0 -5 -4
-10 -10 -10 -5 0 -10 -9 -10 -20 0 -13 7 -20 19 -20 11 0 21 3 23 8 5 12 76
62 87 62 6 0 11 5 11 10 0 6 9 19 20 30 18 18 18 50 1 50 -4 0 -21 -13 -37
-30 -16 -16 -33 -30 -38 -30 -5 0 -18 -7 -28 -17 -10 -9 -18 -11 -18 -5 0 6 9
16 20 22 19 10 29 60 13 60 -5 -1 -26 -15 -48 -33z" />
        <path
            d="M7041 2770 c-28 -22 -53 -40 -56 -40 -13 0 -36 -30 -40 -51 -4 -18
-1 -20 23 -14 15 3 29 11 30 16 2 5 12 14 22 19 16 8 18 7 15 -10 -5 -27 31
-27 65 0 33 26 43 25 29 -1 -6 -13 -7 -25 -2 -30 11 -11 43 -2 43 12 0 5 6 9
14 9 23 0 31 41 12 55 -9 7 -14 19 -10 28 15 41 -38 26 -90 -25 -31 -29 -46
-35 -46 -18 0 6 4 10 8 10 13 0 72 56 72 68 0 24 -39 11 -89 -28z" />
        <path
            d="M7175 8870 c-11 -4 -30 -10 -42 -15 -16 -5 -26 -21 -34 -49 -6 -22
-15 -50 -20 -61 -4 -11 -11 -36 -14 -55 -9 -51 -34 -131 -50 -160 -7 -14 -18
-48 -24 -75 -19 -96 -33 -150 -41 -160 -4 -5 -11 -26 -15 -45 -4 -19 -11 -40
-15 -45 -5 -6 -14 -48 -20 -95 -6 -47 -17 -91 -23 -99 -7 -8 -12 -50 -12 -102
0 -78 3 -90 22 -108 12 -12 26 -21 31 -21 5 0 17 -9 27 -20 10 -11 23 -20 28
-20 6 0 39 -13 74 -30 34 -16 68 -30 73 -30 6 0 36 -9 67 -20 32 -11 67 -20
79 -20 13 0 30 -8 40 -17 13 -13 35 -17 95 -18 44 0 83 5 89 11 6 6 14 35 17
65 5 50 3 56 -24 81 -28 26 -142 70 -215 84 -21 3 -38 10 -38 15 0 5 -9 9 -20
9 -11 0 -35 9 -55 20 -20 11 -44 20 -55 20 -25 0 -37 43 -21 73 6 12 15 52 20
88 14 105 20 111 94 103 34 -4 67 -10 72 -14 6 -4 37 -15 70 -24 162 -45 244
-46 276 -5 23 30 26 107 4 115 -8 4 -15 12 -15 20 0 8 -8 14 -18 14 -10 0 -22
4 -27 9 -10 8 -31 14 -169 46 -32 8 -70 18 -85 24 -14 5 -42 12 -63 16 -20 3
-38 11 -41 18 -7 18 3 68 19 92 6 11 15 36 19 55 4 19 11 40 15 45 5 6 10 21
12 35 3 23 7 25 43 22 22 -1 47 -6 55 -9 8 -4 22 -8 30 -9 114 -20 150 -28
150 -35 0 -4 19 -10 43 -14 23 -3 53 -11 67 -17 14 -5 39 -16 55 -23 82 -35
159 -57 163 -46 2 6 9 11 16 11 29 0 56 46 56 96 0 44 -3 51 -33 71 -30 21
-97 52 -114 54 -5 0 -12 4 -18 9 -5 4 -26 11 -45 15 -19 4 -41 11 -50 16 -8 4
-35 13 -60 18 -25 5 -74 17 -110 26 -36 10 -73 17 -82 17 -10 0 -20 3 -23 9
-4 5 -17 9 -30 9 -13 0 -44 6 -67 14 -59 19 -109 25 -133 16z" />
        <path
            d="M8140 8530 c0 -5 -8 -10 -17 -10 -17 -1 -83 -53 -83 -66 0 -4 -10
-28 -21 -53 -49 -106 -59 -128 -59 -134 0 -3 -13 -35 -30 -70 -16 -36 -30 -70
-30 -76 0 -6 -9 -28 -20 -48 -11 -21 -20 -43 -20 -49 0 -6 -13 -35 -29 -65
-15 -30 -32 -69 -36 -86 -3 -18 -11 -33 -16 -33 -5 0 -9 -9 -9 -21 0 -12 -6
-35 -14 -52 -62 -147 -74 -232 -37 -279 23 -28 104 -73 152 -83 19 -4 39 -11
44 -15 6 -4 30 -11 55 -15 25 -4 53 -11 62 -16 9 -5 47 -13 85 -19 93 -14 96
-15 111 -24 7 -4 36 -10 65 -13 47 -5 56 -2 78 18 37 36 48 69 35 101 -29 68
-89 99 -231 117 -66 9 -168 35 -227 59 -29 12 -29 26 6 125 9 26 16 52 16 58
0 5 11 26 23 47 13 20 30 55 38 77 7 22 25 63 40 90 15 28 30 65 34 83 3 17
11 34 16 37 5 4 9 14 9 24 0 10 25 67 55 127 30 60 55 117 55 127 0 9 5 17 10
17 6 0 10 7 10 15 0 8 -4 15 -10 15 -5 0 -10 8 -10 18 0 21 -25 51 -57 70 -27
15 -43 16 -43 2z" />
        <path
            d="M9014 8191 c-44 -27 -62 -55 -163 -257 -95 -190 -101 -204 -151 -329
-17 -44 -40 -98 -50 -120 -10 -22 -26 -58 -35 -80 -9 -22 -23 -55 -31 -73 -20
-47 -17 -81 11 -118 41 -54 126 -88 315 -125 63 -12 127 -28 142 -36 66 -32
138 7 138 77 0 68 -44 96 -205 130 -60 12 -120 26 -133 31 -13 5 -32 9 -42 9
-38 0 -24 53 60 235 15 33 30 71 34 85 6 21 159 331 191 387 6 10 25 34 43 53
40 43 43 86 7 124 -30 32 -85 35 -131 7z" />
        <path
            d="M9895 7730 c-4 -6 -10 -8 -15 -5 -5 3 -11 1 -15 -5 -3 -5 -17 -10
-31 -10 -14 0 -37 -8 -52 -18 -15 -10 -48 -33 -74 -50 -25 -18 -50 -32 -55
-32 -4 0 -19 -13 -33 -30 -14 -16 -29 -30 -35 -30 -13 -1 -85 -68 -85 -80 0
-5 -9 -18 -20 -28 -35 -32 -89 -136 -97 -187 -23 -146 -11 -247 43 -355 37
-74 153 -170 204 -170 9 0 20 -4 26 -9 9 -10 131 -32 174 -32 39 0 178 25 186
34 4 4 14 7 23 7 17 0 105 44 128 64 7 6 31 27 54 46 23 19 49 43 58 53 58 62
78 85 90 107 46 81 59 109 66 140 4 19 12 41 19 49 7 9 11 61 10 145 l0 131
-37 63 c-20 35 -37 70 -37 77 0 16 -60 75 -77 75 -7 0 -13 5 -13 10 0 6 -11
10 -24 10 -13 0 -52 9 -86 20 -47 15 -90 20 -176 20 -66 0 -115 -4 -119 -10z
m251 -220 c52 -23 64 -35 94 -94 21 -42 28 -140 10 -151 -5 -3 -10 -15 -10
-25 0 -41 -69 -155 -123 -205 -64 -59 -80 -70 -127 -90 -19 -9 -43 -20 -54
-26 -10 -6 -57 -11 -105 -11 -69 0 -94 4 -127 21 -43 22 -78 58 -101 100 -16
31 -17 150 -2 206 18 66 192 223 297 266 17 8 32 17 32 21 0 5 38 8 84 8 63 0
97 -5 132 -20z" />
        <path
            d="M10808 7413 c-32 -34 -79 -120 -104 -190 -10 -29 -21 -53 -25 -53 -4
0 -10 -11 -13 -25 -4 -14 -20 -47 -36 -74 -17 -26 -30 -55 -30 -64 0 -8 -6
-28 -14 -44 -71 -144 -123 -261 -131 -296 -4 -15 -11 -30 -16 -33 -13 -8 -11
-89 3 -119 11 -25 76 -65 105 -65 20 0 76 30 91 49 24 30 102 213 102 239 0 6
6 15 13 19 15 10 47 70 47 88 0 7 6 26 14 42 55 111 126 264 126 272 0 13 33
74 44 83 6 4 12 37 14 74 4 54 1 69 -12 76 -9 5 -16 15 -16 22 0 17 -31 26
-91 26 -37 0 -50 -5 -71 -27z" />
        <path
            d="M10315 6314 c-17 -26 -16 -29 11 -86 15 -32 37 -68 48 -80 12 -13 20
-23 18 -23 -9 0 19 -55 28 -55 12 0 52 19 60 29 3 3 22 15 43 26 48 25 90 86
81 119 -3 13 -15 34 -26 46 -18 19 -28 22 -68 17 -36 -4 -53 -1 -76 14 -44 28
-98 25 -119 -7z" />
        <path
            d="M1298 6246 c-68 -25 -171 -108 -237 -191 -12 -15 -16 -15 -25 -4 -10
13 -63 35 -146 61 -54 18 -289 22 -320 6 -40 -20 -105 -62 -108 -70 -2 -5 -9
-8 -15 -8 -14 -1 -87 -99 -87 -117 0 -7 -4 -13 -10 -13 -5 0 -12 -23 -16 -50
-4 -28 -11 -53 -15 -56 -5 -3 -9 -42 -9 -87 0 -70 4 -90 29 -139 33 -65 38
-71 111 -149 30 -32 61 -59 68 -59 6 0 12 -4 12 -9 0 -5 32 -28 72 -52 39 -24
86 -53 104 -64 35 -22 137 -85 162 -100 95 -57 224 -160 318 -253 90 -90 184
-205 184 -225 0 -17 45 -57 65 -57 33 0 39 31 40 199 1 151 26 428 41 453 3 5
12 35 19 66 14 62 31 110 68 193 68 153 85 258 67 409 -10 81 -22 123 -59 199
-22 45 -97 121 -121 121 -10 0 -22 5 -25 10 -10 17 -107 9 -167 -14z m182 -87
c0 -7 11 -22 24 -34 49 -46 65 -93 86 -259 9 -65 8 -88 -5 -125 -8 -24 -15
-55 -15 -67 0 -13 -4 -25 -9 -29 -5 -3 -13 -20 -17 -37 -3 -18 -10 -39 -15
-48 -67 -118 -124 -359 -134 -557 -6 -127 -10 -153 -27 -153 -11 0 -56 40
-102 90 -17 19 -44 46 -60 60 -16 14 -49 44 -74 68 -25 23 -51 42 -58 42 -6 0
-14 7 -18 15 -3 8 -10 15 -16 15 -5 0 -37 20 -71 45 -34 25 -66 45 -71 45 -5
0 -24 10 -41 23 -42 29 -68 45 -89 53 -9 3 -19 12 -22 20 -3 8 -16 14 -30 14
-13 0 -26 7 -30 15 -3 8 -12 15 -20 15 -7 0 -16 7 -20 15 -3 8 -12 15 -20 15
-7 0 -16 7 -20 15 -3 8 -12 15 -21 15 -8 0 -15 5 -15 10 0 6 -6 10 -14 10 -16
0 -96 91 -96 109 0 6 -7 11 -15 11 -8 0 -15 8 -15 18 0 10 -7 27 -15 38 -22
29 -19 147 6 222 11 34 25 62 30 62 5 0 9 7 9 15 0 8 5 15 10 15 6 0 10 7 10
15 0 8 6 15 14 15 8 0 29 13 46 29 29 26 39 28 133 34 124 7 223 -1 238 -19 6
-8 22 -14 36 -14 13 0 26 -7 29 -15 4 -8 12 -15 20 -15 8 0 14 -4 14 -10 0
-12 53 -40 76 -40 29 0 54 31 54 66 0 27 10 41 69 93 38 34 74 61 80 61 6 0
11 7 11 15 0 12 17 15 90 15 60 0 90 -4 90 -11z" />
        <path
            d="M1652 4748 c-17 -17 -15 -44 5 -76 32 -51 127 -172 135 -172 4 0 8
-4 8 -10 0 -10 51 -68 185 -208 133 -140 383 -326 558 -415 45 -23 84 -45 85
-49 2 -5 9 -8 15 -8 7 0 23 -9 37 -20 14 -11 40 -20 58 -20 29 0 32 3 32 30 0
26 -8 35 -52 64 -29 18 -87 50 -128 71 -180 93 -355 222 -514 380 -157 156
-219 226 -304 343 -73 100 -94 116 -120 90z" />
        <path
            d="M1818 4203 c-23 -6 -25 -75 -3 -93 8 -7 15 -17 15 -22 0 -34 283
-348 314 -348 3 0 24 -13 48 -29 45 -29 256 -134 296 -146 12 -3 22 -11 22
-16 0 -5 10 -9 23 -9 12 0 35 -7 51 -15 16 -9 46 -20 65 -25 20 -5 54 -14 76
-19 52 -14 112 -14 120 0 4 5 4 21 1 34 -5 19 -18 27 -59 39 -28 8 -79 22
-112 31 -33 9 -73 23 -90 30 -16 8 -59 26 -95 40 -89 37 -235 112 -290 149
-72 48 -193 176 -287 301 -5 6 -17 27 -28 48 -22 42 -40 56 -67 50z" />
        <path d="M11173 60 c0 -25 2 -35 4 -22 2 12 2 32 0 45 -2 12 -4 2 -4 -23z" />
        <path
            d="M11290 76 c0 -14 -9 -31 -21 -39 -20 -15 -20 -15 5 -13 23 1 26 5 26
39 0 20 -2 37 -5 37 -3 0 -5 -11 -5 -24z" />
        <path
            d="M11313 60 c0 -25 2 -35 4 -22 2 12 7 22 11 22 3 0 17 -10 31 -22 14
-13 19 -15 12 -6 -11 15 -11 21 -1 33 10 13 11 18 1 28 -10 9 -11 8 -6 -5 6
-14 2 -18 -18 -18 -16 0 -27 7 -30 18 -3 9 -5 -3 -4 -28z" />
        <path
            d="M11402 60 c0 -25 2 -37 5 -27 6 21 17 22 33 2 7 -8 18 -15 24 -15 6
1 0 10 -13 21 -23 19 -23 20 -6 39 10 11 13 20 8 20 -6 0 -17 -7 -24 -16 -12
-14 -14 -14 -20 3 -5 11 -7 2 -7 -27z" />
        <path d="M11536 93 c5 -5 12 -12 16 -18 4 -6 8 -2 8 8 0 9 -7 17 -17 17 -9 0
-12 -3 -7 -7z" />
        <path d="M11580 71 c0 -17 4 -32 8 -35 4 -2 6 11 4 30 -5 42 -12 45 -12 5z" />
        <path
            d="M11650 72 c0 -20 -7 -32 -22 -39 -22 -10 -22 -11 4 -9 25 1 28 5 28
39 0 20 -2 37 -5 37 -3 0 -5 -13 -5 -28z" />
        <path d="M11710 85 c-6 -8 -10 -19 -8 -24 1 -6 8 1 15 14 13 28 11 31 -7 10z" />
        <path d="M11755 90 c3 -5 8 -10 11 -10 2 0 4 5 4 10 0 6 -5 10 -11 10 -5 0 -7
-4 -4 -10z" />
        <path d="M11852 86 c7 -8 15 -12 17 -11 5 6 -10 25 -20 25 -5 0 -4 -6 3 -14z" />
        <path d="M11893 60 c0 -25 2 -35 4 -22 2 12 2 32 0 45 -2 12 -4 2 -4 -23z" />
        <path d="M11920 60 c0 -22 2 -40 4 -40 2 0 6 18 8 40 2 22 0 40 -4 40 -5 0 -8
-18 -8 -40z" />
        <path d="M11960 57 c4 -41 5 -41 8 -8 2 18 0 37 -5 42 -5 5 -6 -11 -3 -34z" />
        <path d="M11480 61 c0 -10 39 -46 43 -40 2 2 -7 14 -20 26 -13 12 -23 19 -23
14z" />
        <path d="M11790 61 c0 -10 39 -46 43 -40 2 2 -7 14 -20 26 -13 12 -23 19 -23
14z" />
        <path d="M11545 40 c-3 -5 -1 -10 4 -10 6 0 11 5 11 10 0 6 -2 10 -4 10 -3 0
-8 -4 -11 -10z" />
        <path d="M11720 30 c8 -5 20 -10 25 -10 6 0 3 5 -5 10 -8 5 -19 10 -25 10 -5
0 -3 -5 5 -10z" />
    </g>
</svg>